<svg height="158" node-id="1" sillyvg="true" template-height="158" template-width="238" version="1.1" viewBox="0 0 238 158" width="238" xmlns="http://www.w3.org/2000/svg" xmlns:xlink="http://www.w3.org/1999/xlink"><defs node-id="102"><linearGradient gradientUnits="objectBoundingBox" id="未命名的渐变_217" node-id="5" spreadMethod="pad" x1="119.2" x2="119.2" y1="157.51" y2="89.11"><stop offset="0" stop-color="#ffffff"/><stop offset="0.38" stop-color="#fdfeff"/><stop offset="0.53" stop-color="#f6fafe"/><stop offset="0.65" stop-color="#e9f4fc"/><stop offset="0.75" stop-color="#d8eaf9"/><stop offset="0.84" stop-color="#c1def6"/><stop offset="0.91" stop-color="#a4cff1"/><stop offset="0.98" stop-color="#83beec"/><stop offset="1" stop-color="#7ab9eb"/></linearGradient><linearGradient gradientUnits="objectBoundingBox" id="未命名的渐变_19" node-id="15" spreadMethod="pad" x1="24.2" x2="24.2" y1="109.01" y2="99.9"><stop offset="0" stop-color="#ffffff"/><stop offset="1" stop-color="#7ab9eb"/></linearGradient><linearGradient gradientUnits="objectBoundingBox" id="未命名的渐变_19-2" node-id="18" spreadMethod="pad" x1="210.66" x2="210.66" y1="91.33" y2="77.58"><stop offset="0" stop-color="#ffffff"/><stop offset="1" stop-color="#7ab9eb"/></linearGradient><linearGradient gradientUnits="objectBoundingBox" id="未命名的渐变_211" node-id="19" spreadMethod="pad" x1="58.57" x2="52.11" y1="109.76" y2="93.76"><stop offset="0" stop-color="#5caae8" stop-opacity="0.5"/><stop offset="0.29" stop-color="#99caf1" stop-opacity="0.31"/><stop offset="0.6" stop-color="#d0e7f8" stop-opacity="0.14"/><stop offset="0.85" stop-color="#f2f8fd" stop-opacity="0.04"/><stop offset="1" stop-color="#ffffff" stop-opacity="0"/></linearGradient><linearGradient gradientUnits="objectBoundingBox" id="未命名的渐变_162" node-id="25" spreadMethod="pad" x1="147.36" x2="147.36" y1="-2632.18" y2="-2517.17"><stop offset="0" stop-color="#7ab9eb"/><stop offset="0.03" stop-color="#83beed"/><stop offset="0.14" stop-color="#a3cff2"/><stop offset="0.25" stop-color="#bedcf6"/><stop offset="0.38" stop-color="#d2e7f9"/><stop offset="0.53" stop-color="#e0eefb"/><stop offset="0.71" stop-color="#e8f3fd"/><stop offset="1" stop-color="#ebf4fd"/></linearGradient><linearGradient gradientUnits="objectBoundingBox" id="未命名的渐变_180" node-id="34" spreadMethod="pad" x1="58.11" x2="174.99" y1="44.35" y2="44.35"><stop offset="0" stop-color="#5caae8"/><stop offset="0.08" stop-color="#71b5eb"/><stop offset="0.2" stop-color="#8bc2ef"/><stop offset="0.34" stop-color="#9fcdf1"/><stop offset="0.5" stop-color="#add4f3"/><stop offset="0.69" stop-color="#b5d9f5"/><stop offset="1" stop-color="#b8daf5"/></linearGradient><linearGradient gradientUnits="objectBoundingBox" id="未命名的渐变_194" node-id="42" spreadMethod="pad" x1="156.19" x2="148.38" y1="71.67" y2="42.51"><stop offset="0" stop-color="#99c9f1"/><stop offset="0.11" stop-color="#b8d9f5"/><stop offset="0.23" stop-color="#d2e7f9"/><stop offset="0.36" stop-color="#e6f2fc"/><stop offset="0.51" stop-color="#f4f9fe"/><stop offset="0.7" stop-color="#fcfeff"/><stop offset="1" stop-color="#ffffff"/></linearGradient><linearGradient gradientUnits="objectBoundingBox" id="未命名的渐变_211-2" node-id="50" spreadMethod="pad" x1="133.87" x2="144.68" y1="42.95" y2="66.15"><stop offset="0" stop-color="#5caae8" stop-opacity="0.5"/><stop offset="0.29" stop-color="#99caf1" stop-opacity="0.31"/><stop offset="0.6" stop-color="#d0e7f8" stop-opacity="0.14"/><stop offset="0.85" stop-color="#f2f8fd" stop-opacity="0.04"/><stop offset="1" stop-color="#ffffff" stop-opacity="0"/></linearGradient><linearGradient gradientUnits="objectBoundingBox" id="未命名的渐变_162-2" node-id="51" spreadMethod="pad" x1="88.92" x2="88.92" y1="-2611.39" y2="-2508.49"><stop offset="0" stop-color="#7ab9eb"/><stop offset="0.03" stop-color="#83beed"/><stop offset="0.14" stop-color="#a3cff2"/><stop offset="0.25" stop-color="#bedcf6"/><stop offset="0.38" stop-color="#d2e7f9"/><stop offset="0.53" stop-color="#e0eefb"/><stop offset="0.71" stop-color="#e8f3fd"/><stop offset="1" stop-color="#ebf4fd"/></linearGradient><linearGradient gradientUnits="objectBoundingBox" id="未命名的渐变_194-2" node-id="52" spreadMethod="pad" x1="75.36" x2="84.42" y1="74.53" y2="40.73"><stop offset="0" stop-color="#99c9f1"/><stop offset="0.11" stop-color="#b8d9f5"/><stop offset="0.23" stop-color="#d2e7f9"/><stop offset="0.36" stop-color="#e6f2fc"/><stop offset="0.51" stop-color="#f4f9fe"/><stop offset="0.7" stop-color="#fcfeff"/><stop offset="1" stop-color="#ffffff"/></linearGradient><linearGradient gradientUnits="objectBoundingBox" id="未命名的渐变_164" node-id="53" spreadMethod="pad" x1="85.74" x2="86.3" y1="91.67" y2="88.17"><stop offset="0" stop-color="#5caae8"/><stop offset="0.00000011920929" stop-color="#5eabe8"/><stop offset="0.1" stop-color="#83beee"/><stop offset="0.2" stop-color="#a3cff2"/><stop offset="0.31" stop-color="#bedcf6"/><stop offset="0.43" stop-color="#d2e7f9"/><stop offset="0.56" stop-color="#e0eefb"/><stop offset="0.73" stop-color="#e8f3fd"/><stop offset="1" stop-color="#ebf4fd"/></linearGradient><linearGradient gradientUnits="objectBoundingBox" id="未命名的渐变_164-2" node-id="63" spreadMethod="pad" x1="150.45" x2="149.51" y1="91.35" y2="87.83"><stop offset="0" stop-color="#5caae8"/><stop offset="0.00000011920929" stop-color="#5eabe8"/><stop offset="0.1" stop-color="#83beee"/><stop offset="0.2" stop-color="#a3cff2"/><stop offset="0.31" stop-color="#bedcf6"/><stop offset="0.43" stop-color="#d2e7f9"/><stop offset="0.56" stop-color="#e0eefb"/><stop offset="0.73" stop-color="#e8f3fd"/><stop offset="1" stop-color="#ebf4fd"/></linearGradient><linearGradient gradientUnits="objectBoundingBox" id="未命名的渐变_18" node-id="64" spreadMethod="pad" x1="183.51" x2="195.35" y1="22" y2="14.6"><stop offset="0" stop-color="#007adc"/><stop offset="1" stop-color="#0ab0ed"/></linearGradient><linearGradient gradientUnits="objectBoundingBox" id="未命名的渐变_18-2" node-id="67" spreadMethod="pad" x1="127.28" x2="149.73" y1="24.67" y2="24.67"><stop offset="0" stop-color="#007adc"/><stop offset="1" stop-color="#0ab0ed"/></linearGradient><linearGradient gradientUnits="objectBoundingBox" id="未命名的渐变_18-3" node-id="68" spreadMethod="pad" x1="123.69" x2="145.58" y1="32.85" y2="20.21"><stop offset="0" stop-color="#007adc"/><stop offset="1" stop-color="#0ab0ed"/></linearGradient></defs><g node-id="364"><path d="M 238.40 123.30 L 238.20 125.40 L 237.50 127.60 L 236.30 129.70 L 234.60 131.90 L 232.30 134.10 L 229.30 136.40 L 220.90 141.10 L 215.40 143.50 L 208.00 146.10 L 199.50 148.60 L 189.60 150.90 L 179.70 152.80 L 168.80 154.40 L 156.90 155.80 L 132.40 157.30 L 119.20 157.50 L 106.00 157.30 L 81.50 155.80 L 69.60 154.40 L 58.70 152.80 L 48.80 150.90 L 38.90 148.60 L 30.40 146.10 L 23.00 143.50 L 12.90 138.80 L 9.10 136.40 L 6.10 134.10 L 3.80 131.90 L 2.10 129.70 L 0.90 127.60 L 0.20 125.40 L 0.00 123.30 L 0.20 121.20 L 0.90 119.10 L 2.10 116.90 L 3.80 114.70 L 6.10 112.50 L 12.90 107.80 L 17.50 105.50 L 23.00 103.10 L 30.40 100.50 L 38.90 98.00 L 48.80 95.70 L 58.70 93.80 L 69.60 92.20 L 81.50 90.90 L 93.40 89.90 L 119.20 89.10 L 132.40 89.30 L 156.90 90.90 L 168.80 92.20 L 179.70 93.80 L 189.60 95.70 L 199.50 98.00 L 208.00 100.50 L 215.40 103.10 L 220.90 105.50 L 229.30 110.20 L 232.30 112.50 L 234.60 114.70 L 236.30 116.90 L 237.50 119.10 L 238.20 121.20 L 238.40 123.30 Z" fill="url(#未命名的渐变_217)" fill-rule="nonzero" group-id="1" node-id="305" stroke="none" target-height="68.4" target-width="238.4" target-x="0" target-y="89.1"/><path d="M 28.80 104.50 L 28.60 105.70 L 27.40 107.70 L 25.40 108.80 L 24.20 109.00 L 21.90 108.40 L 20.30 106.70 L 19.80 105.70 L 19.60 104.50 L 20.30 102.20 L 21.90 100.50 L 24.20 99.90 L 25.40 100.10 L 27.40 101.20 L 28.60 103.20 L 28.80 104.50 Z" fill="url(#未命名的渐变_19)" fill-rule="nonzero" group-id="1" node-id="307" stroke="none" target-height="9.099998" target-width="9.199999" target-x="19.6" target-y="99.9"/><path d="M 217.50 84.50 L 217.30 86.30 L 216.60 87.90 L 215.50 89.30 L 214.10 90.40 L 212.50 91.10 L 210.70 91.30 L 208.80 91.10 L 207.20 90.40 L 205.80 89.30 L 204.70 87.90 L 204.00 86.30 L 203.80 84.50 L 204.00 82.60 L 204.70 81.00 L 205.80 79.60 L 207.20 78.50 L 208.80 77.80 L 210.70 77.60 L 212.50 77.80 L 214.10 78.50 L 215.50 79.60 L 216.60 81.00 L 217.30 82.60 L 217.50 84.50 Z" fill="url(#未命名的渐变_19-2)" fill-rule="nonzero" group-id="1" node-id="309" stroke="none" target-height="13.700005" target-width="13.699997" target-x="203.8" target-y="77.6"/><path d="M 60.40 93.40 L 44.80 96.70 L 60.40 109.00 Z" fill="url(#未命名的渐变_211)" fill-rule="nonzero" group-id="1" node-id="311" stroke="none" target-height="15.599998" target-width="15.600002" target-x="44.8" target-y="93.4"/><path d="M 171.60 108.50 L 119.70 123.50 L 119.70 50.20 L 175.00 42.80 L 175.00 104.10 L 174.80 105.60 L 174.10 106.90 L 173.00 107.90 L 171.60 108.50 Z" fill="url(#未命名的渐变_162)" fill-rule="nonzero" group-id="1" node-id="313" stroke="none" target-height="80.7" target-width="55.300003" target-x="119.7" target-y="42.8"/><path d="M 58.10 43.80 L 115.50 38.50 L 175.00 42.80 L 119.70 50.20 L 58.10 43.80 Z" fill="url(#未命名的渐变_180)" fill-rule="nonzero" group-id="1" node-id="315" stroke="none" target-height="11.700001" target-width="116.9" target-x="58.1" target-y="38.5"/><path d="M 119.70 50.20 L 129.30 78.90 L 184.60 62.90 L 175.00 42.80 L 119.70 50.20 Z" fill="url(#未命名的渐变_194)" fill-rule="nonzero" group-id="1" node-id="317" stroke="none" target-height="36.100002" target-width="64.90001" target-x="119.7" target-y="42.8"/><path d="M 128.40 45.50 L 137.30 67.70 L 150.20 63.60 L 143.90 47.30 L 135.10 48.40 L 128.40 45.50 Z" fill="url(#未命名的渐变_211-2)" fill-rule="nonzero" group-id="1" node-id="319" stroke="none" target-height="22.199997" target-width="21.800003" target-x="128.4" target-y="45.5"/><path d="M 119.70 123.50 L 61.70 109.50 L 60.20 108.90 L 59.10 107.90 L 58.40 106.50 L 58.10 105.00 L 58.10 43.80 L 119.70 50.20 Z" fill="url(#未命名的渐变_162-2)" fill-rule="nonzero" group-id="1" node-id="321" stroke="none" target-height="79.7" target-width="61.6" target-x="58.1" target-y="43.8"/><path d="M 58.10 43.80 L 40.00 65.10 L 105.90 78.90 L 119.70 50.20 L 58.10 43.80 Z" fill="url(#未命名的渐变_194-2)" fill-rule="nonzero" group-id="1" node-id="323" stroke="none" target-height="35.100002" target-width="79.7" target-x="40" target-y="43.8"/><path d="M 68.90 85.40 L 103.60 91.10 L 104.70 91.80 L 105.00 93.00 L 104.30 94.10 L 103.10 94.40 L 68.40 88.70 L 67.30 88.10 L 67.00 86.80 L 67.70 85.70 L 68.90 85.40 Z" fill="url(#未命名的渐变_164)" fill-rule="nonzero" group-id="1" node-id="325" stroke="none" target-height="9" target-width="38" target-x="67" target-y="85.4"/><path d="M 167.40 86.80 L 133.40 95.60 L 132.20 95.40 L 131.40 94.40 L 131.60 93.20 L 132.60 92.40 L 166.60 83.60 L 167.90 83.80 L 168.60 84.80 L 168.40 86.00 L 167.40 86.80 Z" fill="url(#未命名的渐变_164-2)" fill-rule="nonzero" group-id="1" node-id="327" stroke="none" target-height="12" target-width="37.200012" target-x="131.4" target-y="83.6"/><g node-id="365"><path d="M 138.90 65.90 L 141.20 67.40 L 139.40 70.20 L 137.00 68.70 Z" fill="#feb99b" fill-rule="nonzero" group-id="1,2" node-id="331" stroke="none" target-height="4.2999954" target-width="4.199997" target-x="137" target-y="65.9"/></g><path d="M 152.20 44.40 L 149.60 46.70 L 145.60 51.80 L 140.90 60.30 L 138.40 66.40 L 141.10 68.10 L 152.10 55.10 L 158.40 46.50 L 159.20 45.00 L 156.00 43.50 L 153.60 43.10 L 152.70 43.50 L 152.20 44.40 Z" fill="#343434" fill-rule="nonzero" group-id="1" node-id="334" stroke="none" target-height="25" target-width="20.800003" target-x="138.4" target-y="43.1"/><path d="M 137.90 66.90 L 137.40 67.00 L 135.90 69.00 L 136.30 69.80 L 142.60 74.00 L 143.30 73.60 L 143.40 72.60 L 143.10 72.00 L 141.80 70.50 L 140.70 68.50 L 139.10 68.10 L 137.90 66.90 Z" fill="#000000" fill-rule="nonzero" group-id="1" node-id="336" stroke="none" target-height="7.0999985" target-width="7.5" target-x="135.9" target-y="66.9"/><path d="M 153.60 70.00 L 156.40 70.00 L 156.40 73.30 L 153.60 73.30 Z" fill="#ffd5c3" fill-rule="nonzero" group-id="1" node-id="338" stroke="none" target-height="3.300003" target-width="2.7999878" target-x="153.6" target-y="70"/><path d="M 156.60 70.60 L 153.50 70.60 L 152.10 62.50 L 151.60 56.70 L 151.50 51.50 L 152.10 45.90 L 142.20 47.80 L 133.80 48.60 L 131.40 48.10 L 130.00 47.20 L 128.60 45.20 L 128.10 43.40 L 128.10 37.80 L 157.00 37.10 L 158.10 37.50 L 158.80 38.20 L 159.90 40.90 L 159.80 45.50 L 156.60 70.60 Z" fill="#5c5c5c" fill-rule="nonzero" group-id="1" node-id="340" stroke="none" target-height="33.5" target-width="31.799988" target-x="128.1" target-y="37.1"/><path d="M 153.30 71.40 L 152.90 71.70 L 152.80 74.20 L 153.60 74.70 L 161.10 74.70 L 161.50 74.10 L 161.00 73.20 L 160.50 72.80 L 158.50 72.30 L 156.60 71.20 L 155.00 71.70 L 153.30 71.40 Z" fill="#3e3e3e" fill-rule="nonzero" group-id="1" node-id="342" stroke="none" target-height="3.5" target-width="8.699997" target-x="152.8" target-y="71.2"/><path d="M 133.90 7.00 L 137.40 7.00 L 137.40 13.50 L 133.90 13.50 Z" fill="#feb99b" fill-rule="nonzero" group-id="1" node-id="344" stroke="none" target-height="6.5" target-width="3.5" target-x="133.9" target-y="7"/><path d="M 139.90 3.20 L 139.80 8.30 L 139.00 9.50 L 137.20 9.50 L 135.20 8.70 L 133.90 7.60 L 133.60 6.90 L 134.00 3.60 L 137.20 1.50 L 139.70 2.30 Z" fill="#ffd5c3" fill-rule="nonzero" group-id="1" node-id="346" stroke="none" target-height="8" target-width="6.299988" target-x="133.6" target-y="1.5"/><path d="M 133.90 8.40 L 134.30 8.10 L 134.50 7.40 L 133.70 6.60 L 133.60 6.10 L 134.10 5.10 L 134.60 5.10 L 135.40 6.00 L 136.50 3.10 L 137.90 2.30 L 139.40 2.70 L 139.80 4.10 L 140.10 2.60 L 140.40 3.70 L 140.40 2.10 L 138.80 0.60 L 136.50 -0.00 L 134.60 0.30 L 133.60 1.30 L 132.30 1.90 L 131.70 3.30 L 131.90 5.00 L 132.30 6.10 L 133.50 7.50 L 133.90 8.40 Z" fill="#301b20" fill-rule="nonzero" group-id="1" node-id="348" stroke="none" target-height="8.4" target-width="8.699997" target-x="131.7" target-y="-0"/><path d="M 161.60 29.20 L 160.20 29.10 L 159.70 28.70 L 160.10 28.40 L 160.00 28.10 L 158.00 27.80 L 157.50 31.20 L 160.80 31.00 L 161.70 30.60 L 162.00 30.00 L 161.90 29.30 L 161.60 29.20 Z" fill="#fed4c2" fill-rule="nonzero" group-id="1" node-id="350" stroke="none" target-height="3.4000015" target-width="4.5" target-x="157.5" target-y="27.8"/><path d="M 141.80 14.30 L 147.10 23.10 L 158.00 27.60 L 157.60 31.30 L 144.50 27.10 L 136.70 18.70" fill="url(#未命名的渐变_18)" fill-rule="nonzero" group-id="1" node-id="352" stroke="none" target-height="17" target-width="21.300003" target-x="136.7" target-y="14.3"/><path d="M 153.30 31.80 L 151.90 31.80 L 151.40 31.50 L 151.80 31.20 L 151.70 30.80 L 149.60 30.60 L 149.30 34.00 L 152.50 33.80 L 153.40 33.30 L 153.70 32.60 L 153.30 31.80 Z" fill="#fed4c2" fill-rule="nonzero" group-id="1" node-id="354" stroke="none" target-height="3.3999996" target-width="4.399994" target-x="149.3" target-y="30.6"/><path d="M 149.70 30.50 L 142.30 27.80 L 142.30 15.00 L 141.60 13.30 L 140.70 12.40 L 139.40 11.70 L 137.40 11.30 L 137.10 12.60 L 136.40 13.20 L 135.30 12.50 L 133.90 10.30 L 130.70 11.80 L 128.50 13.40 L 127.30 15.20 L 127.30 39.10 L 142.30 39.10 L 142.30 32.10 L 149.40 34.10 Z" fill="url(#未命名的渐变_18-2)" fill-rule="nonzero" group-id="1" node-id="356" stroke="none" target-height="28.8" target-width="22.399994" target-x="127.3" target-y="10.3"/><path d="M 149.70 30.50 L 142.30 27.80 L 142.30 15.00 L 141.60 13.30 L 140.70 12.40 L 139.40 11.70 L 137.40 11.30 L 137.10 12.60 L 136.40 13.20 L 135.30 12.50 L 133.90 10.30 L 130.70 11.80 L 128.50 13.40 L 127.30 15.20 L 127.30 39.10 L 142.30 39.10 L 142.30 32.10 L 149.40 34.10 Z" fill="url(#未命名的渐变_18-3)" fill-rule="nonzero" group-id="1" node-id="358" stroke="none" target-height="28.8" target-width="22.399994" target-x="127.3" target-y="10.3"/><path d="M 142.30 27.80 L 139.50 25.90 L 131.00 16.70 L 139.30 26.80 Z" fill="#007adc" fill-rule="nonzero" group-id="1" node-id="360" stroke="none" target-height="11.099998" target-width="11.300003" target-x="131" target-y="16.7"/><path d="M 135.60 30.00 L 128.10 22.20 L 133.90 29.50 L 135.50 30.70 L 137.40 31.50 L 142.40 32.10 L 135.60 30.00 Z" fill="#007adc" fill-rule="nonzero" group-id="1" node-id="362" stroke="none" target-height="9.899998" target-width="14.299988" target-x="128.1" target-y="22.2"/></g></svg>